<svg width="12" height="12" viewBox="0 0 12 12" fill="none" xmlns="http://www.w3.org/2000/svg">
<path d="M5.99984 0.666748C6.70708 0.666748 7.38536 0.9477 7.88546 1.4478C8.38555 1.94789 8.6665 2.62617 8.6665 3.33341C8.6665 4.04066 8.38555 4.71894 7.88546 5.21903C7.38536 5.71913 6.70708 6.00008 5.99984 6.00008C5.29259 6.00008 4.61432 5.71913 4.11422 5.21903C3.61412 4.71894 3.33317 4.04066 3.33317 3.33341C3.33317 2.62617 3.61412 1.94789 4.11422 1.4478C4.61432 0.9477 5.29259 0.666748 5.99984 0.666748ZM5.99984 7.33342C8.9465 7.33342 11.3332 8.52675 11.3332 10.0001V11.3334H0.666504V10.0001C0.666504 8.52675 3.05317 7.33342 5.99984 7.33342Z" fill="#3254FF"/>
</svg>
